<svg version="1.1" id="Layer_1" xmlns="http://www.w3.org/2000/svg" xmlns:xlink="http://www.w3.org/1999/xlink" x="0px" y="0px"
	 width="100%" viewBox="0 0 500 500" enable-background="new 0 0 500 500" xml:space="preserve">
<path fill="#000000" opacity="1.000000" stroke="none" 
	d="
M0.999999,386.000000 
	C1.000000,257.694275 1.000000,129.388580 1.000000,1.041432 
	C167.603165,1.041432 334.206329,1.041432 500.904755,1.041432 
	C500.904755,167.567245 500.904755,334.134583 500.904755,500.850952 
	C334.333435,500.850952 167.666733,500.850952 1.000000,500.850952 
	C1.000000,463.580566 1.000000,426.255280 1.342875,388.306152 
	C4.465170,386.812866 7.244590,385.943512 10.419659,385.027924 
	C11.873137,384.905670 12.930966,384.829651 14.236345,384.774048 
	C14.797507,384.630554 14.997602,384.377075 15.501347,384.007935 
	C19.121239,383.319916 22.303419,382.528168 25.530069,382.017365 
	C44.960079,378.941711 64.368530,375.704010 83.847534,372.972198 
	C98.327118,370.941559 112.902603,369.594757 127.435356,367.943176 
	C132.988586,367.312073 138.529388,366.519958 144.098160,366.090057 
	C150.971680,365.559387 157.868439,365.329773 165.326950,364.940216 
	C163.772537,370.426300 162.403259,375.258972 160.896164,380.578064 
	C167.478561,384.329132 174.094254,387.909363 180.500412,391.831787 
	C183.601181,393.730347 185.294540,392.390076 187.232895,390.204285 
	C190.965927,385.994720 194.665070,381.730347 198.691528,377.810516 
	C210.451736,366.361816 229.467041,372.385406 232.316193,387.371948 
	C233.442780,393.297729 235.331009,399.093231 237.147049,404.861603 
	C237.530899,406.080902 239.087143,407.768860 240.149414,407.802948 
	C247.947800,408.053467 255.757935,407.938141 263.446472,407.938141 
	C265.676788,399.919464 267.512970,392.271820 269.941254,384.817078 
	C274.268036,371.534332 291.426849,367.374207 301.529785,377.031677 
	C306.105347,381.405426 310.634186,385.842468 314.941101,390.476746 
	C317.106049,392.806183 318.982941,393.372375 321.757660,391.618256 
	C326.744720,388.465515 331.793152,385.390442 336.970551,382.566345 
	C339.628693,381.116394 340.497284,379.651855 339.343842,376.656555 
	C338.209534,373.710754 337.730530,370.512634 336.700592,366.364410 
	C392.110565,370.722321 446.046112,378.625000 499.610718,391.371552 
	C499.077454,390.319763 498.166779,389.704803 497.214203,389.163635 
	C489.514648,384.789246 482.116730,379.713409 474.036041,376.216705 
	C458.414368,369.456879 442.693573,362.673218 426.482941,357.593903 
	C407.909119,351.774170 388.883942,347.195801 369.819000,343.204712 
	C354.266571,339.948883 338.408234,338.006531 322.609467,336.118103 
	C307.725525,334.338959 292.746002,332.354767 277.801727,332.299561 
	C249.088974,332.193420 220.364136,333.174225 191.659363,334.147919 
	C180.144958,334.538513 168.543335,335.352936 157.203278,337.280060 
	C131.873962,341.584412 106.454208,345.498016 81.727280,352.912415 
	C58.444481,359.893829 35.571060,367.782745 13.767204,379.166229 
	C13.303616,379.424500 13.103672,379.701721 12.686010,380.019867 
	C12.468291,380.060822 12.045987,380.194916 11.782460,380.174011 
	C11.316932,380.427795 11.114931,380.702454 10.693968,381.056458 
	C10.198237,381.317444 10.033693,381.571747 9.623298,381.954041 
	C6.510148,383.339630 3.755072,384.669800 0.999999,386.000000 
M316.121277,110.491020 
	C311.523560,115.084198 306.933899,119.685486 302.325958,124.268379 
	C297.245422,129.321289 291.046234,131.249237 284.188629,129.573303 
	C276.337616,127.654602 270.928802,122.769768 268.989288,114.607780 
	C267.626312,108.872116 266.456543,103.079163 264.774902,97.438675 
	C264.359894,96.046707 262.333801,94.246307 260.969604,94.176720 
	C254.320740,93.837517 247.636505,93.843674 240.986237,94.167793 
	C239.625748,94.234108 237.594086,95.952393 237.176407,97.310417 
	C235.206406,103.715729 234.023911,110.369774 231.942307,116.732857 
	C227.644714,129.869797 211.512833,134.495483 201.089676,125.556129 
	C196.220139,121.379799 191.722076,116.711075 187.462173,111.905190 
	C184.878784,108.990685 182.234161,108.689201 179.295074,110.401375 
	C173.106461,114.006569 167.072159,117.876625 161.253799,121.465714 
	C163.344360,129.518707 165.055679,137.012405 167.248734,144.362350 
	C171.252365,157.780441 154.887527,171.227325 144.477234,167.406845 
	C138.049759,165.048035 131.280212,163.581680 124.598381,161.991226 
	C123.360512,161.696579 121.097260,162.278336 120.516747,163.209564 
	C116.703781,169.326141 113.083534,175.577713 109.776413,181.979462 
	C109.253487,182.991714 110.207428,185.381195 111.206558,186.459045 
	C115.508522,191.099884 120.038490,195.533524 124.567192,199.958954 
	C130.431747,205.689758 131.382370,212.672638 128.838348,219.918533 
	C126.631088,226.205261 122.247002,230.674423 115.210701,232.183472 
	C108.204086,233.686127 101.313652,235.730469 94.035294,237.625015 
	C94.035294,245.686157 93.922836,253.713364 94.166672,261.729736 
	C94.200043,262.826660 95.827888,264.476624 97.026093,264.833008 
	C102.355911,266.418152 107.768372,267.762787 113.206306,268.938385 
	C121.723152,270.779572 127.427811,275.795044 129.535202,284.138275 
	C131.418045,291.592529 128.898575,298.026428 123.272812,303.333618 
	C119.032295,307.334015 114.924545,311.487549 110.967972,315.767303 
	C110.052208,316.757843 109.245949,318.844910 109.676537,319.904144 
	C111.155182,323.541687 112.924629,327.143341 115.168289,330.349182 
	C116.134583,331.729919 118.683006,333.046204 120.259995,332.796417 
	C137.198898,330.113373 154.087265,327.111237 171.674469,324.078400 
	C149.807922,299.127869 139.973526,270.019043 144.220703,237.217789 
	C148.502319,204.150543 165.300735,178.002411 193.454239,160.160904 
	C235.296158,133.644775 287.811157,137.247971 326.943817,174.706223 
	C347.193115,194.089081 357.757202,218.983307 358.669769,246.842392 
	C359.644775,276.608643 349.863373,303.194275 329.073425,324.995422 
	C346.838684,328.311615 364.176941,331.591553 381.549377,334.679321 
	C382.556519,334.858337 384.290894,333.762054 384.918060,332.772217 
	C387.550812,328.616974 390.023895,324.343018 392.229126,319.948761 
	C392.685699,319.038879 392.172363,317.007141 391.381989,316.213745 
	C387.416718,312.233093 383.215851,308.486694 379.088470,304.668030 
	C372.710846,298.767365 370.080688,291.434021 372.512146,283.146881 
	C374.848663,275.183197 380.429810,270.250824 388.994598,268.805298 
	C394.302765,267.909332 399.547272,266.443024 404.670532,264.773193 
	C406.039185,264.327118 407.708374,262.236450 407.782410,260.824463 
	C408.122284,254.342987 407.826691,247.831100 408.009735,241.337189 
	C408.088867,238.530243 406.678772,237.589859 404.331940,237.053513 
	C398.588837,235.740952 392.832001,234.467697 387.141083,232.951889 
	C374.902863,229.692169 367.188904,216.300797 374.184906,204.219559 
	C377.796112,197.983459 384.037231,193.254868 389.173431,187.925476 
	C391.025665,186.003586 394.260040,184.888382 392.018219,181.190170 
	C388.788483,175.862289 385.445465,170.577652 382.639771,165.027390 
	C380.842834,161.472672 378.423767,161.514587 375.350372,162.369110 
	C369.368469,164.032318 363.325409,165.497803 357.405121,167.355652 
	C346.197815,170.872665 333.317871,159.441147 334.178558,149.612595 
	C334.869720,141.719604 337.456268,133.981155 339.354828,126.211517 
	C340.025085,123.468384 340.555756,121.311348 337.285126,119.607376 
	C331.620453,116.656143 326.250854,113.142578 320.637421,110.085373 
	C319.603851,109.522476 318.001617,110.003792 316.121277,110.491020 
M169.930511,246.376266 
	C169.377365,248.715546 167.703766,252.541870 168.475220,253.123154 
	C171.084854,255.089417 174.561066,255.905548 176.578262,256.710968 
	C176.409576,275.879547 175.987213,294.924164 176.232010,313.960205 
	C176.304077,319.564056 179.232880,322.367218 184.623611,322.019989 
	C190.761993,321.624573 196.945709,321.964722 203.109207,321.917755 
	C208.018784,321.880371 209.856339,320.010742 209.962280,315.000763 
	C210.024033,312.080658 209.973541,309.158142 209.973541,306.370178 
	C238.098053,306.370178 265.473297,306.370178 293.037109,306.370178 
	C293.037109,309.465393 293.008636,312.126282 293.043091,314.786346 
	C293.112885,320.172668 294.803162,321.890717 300.166077,321.929352 
	C305.996460,321.971375 311.867371,321.509521 317.647461,322.049774 
	C324.163422,322.658783 327.035736,318.865326 326.957520,312.413452 
	C326.731323,293.756042 326.607605,275.097382 326.439331,255.946991 
	C327.246216,255.946991 329.289642,256.481781 330.781494,255.803467 
	C332.422913,255.057083 334.648132,253.256638 334.729889,251.808716 
	C335.164459,244.113129 329.979553,239.019226 322.013885,239.100876 
	C319.011475,239.131638 317.746887,238.147064 316.823517,235.274673 
	C314.421143,227.801407 311.789673,220.383911 308.844025,213.108368 
	C306.175385,206.516968 304.507965,198.837845 296.721680,196.073181 
	C290.759369,193.956177 284.570709,191.653839 278.359467,191.226746 
	C264.138214,190.248932 249.841339,190.142288 235.575500,190.151566 
	C229.709534,190.155380 223.771957,190.993591 217.993790,192.109161 
	C205.703445,194.482040 196.824966,200.551895 193.534134,213.755249 
	C191.384003,222.381851 187.483490,230.572174 184.365891,238.960922 
	C178.521057,239.230133 171.993713,237.643570 169.930511,246.376266 
z"/>
<path fill="#566A99" opacity="1.000000" stroke="none" 
	d="
M10.024012,385.074158 
	C7.244590,385.943512 4.465170,386.812866 1.342875,387.841125 
	C1.000000,387.555542 1.000000,387.111115 0.999999,386.333313 
	C3.755072,384.669800 6.510148,383.339630 9.626282,382.351440 
	C9.999566,383.487000 10.011790,384.280579 10.024012,385.074158 
z"/>
<path fill="#5573B1" opacity="1.000000" stroke="none" 
	d="
M316.391571,110.247070 
	C318.001617,110.003792 319.603851,109.522476 320.637421,110.085373 
	C326.250854,113.142578 331.620453,116.656143 337.285126,119.607376 
	C340.555756,121.311348 340.025085,123.468384 339.354828,126.211517 
	C337.456268,133.981155 334.869720,141.719604 334.178558,149.612595 
	C333.317871,159.441147 346.197815,170.872665 357.405121,167.355652 
	C363.325409,165.497803 369.368469,164.032318 375.350372,162.369110 
	C378.423767,161.514587 380.842834,161.472672 382.639771,165.027390 
	C385.445465,170.577652 388.788483,175.862289 392.018219,181.190170 
	C394.260040,184.888382 391.025665,186.003586 389.173431,187.925476 
	C384.037231,193.254868 377.796112,197.983459 374.184906,204.219559 
	C367.188904,216.300797 374.902863,229.692169 387.141083,232.951889 
	C392.832001,234.467697 398.588837,235.740952 404.331940,237.053513 
	C406.678772,237.589859 408.088867,238.530243 408.009735,241.337189 
	C407.826691,247.831100 408.122284,254.342987 407.782410,260.824463 
	C407.708374,262.236450 406.039185,264.327118 404.670532,264.773193 
	C399.547272,266.443024 394.302765,267.909332 388.994598,268.805298 
	C380.429810,270.250824 374.848663,275.183197 372.512146,283.146881 
	C370.080688,291.434021 372.710846,298.767365 379.088470,304.668030 
	C383.215851,308.486694 387.416718,312.233093 391.381989,316.213745 
	C392.172363,317.007141 392.685699,319.038879 392.229126,319.948761 
	C390.023895,324.343018 387.550812,328.616974 384.918060,332.772217 
	C384.290894,333.762054 382.556519,334.858337 381.549377,334.679321 
	C364.176941,331.591553 346.838684,328.311615 329.073425,324.995422 
	C349.863373,303.194275 359.644775,276.608643 358.669769,246.842392 
	C357.757202,218.983307 347.193115,194.089081 326.943817,174.706223 
	C287.811157,137.247971 235.296158,133.644775 193.454239,160.160904 
	C165.300735,178.002411 148.502319,204.150543 144.220703,237.217789 
	C139.973526,270.019043 149.807922,299.127869 171.674469,324.078400 
	C154.087265,327.111237 137.198898,330.113373 120.259995,332.796417 
	C118.683006,333.046204 116.134583,331.729919 115.168289,330.349182 
	C112.924629,327.143341 111.155182,323.541687 109.676537,319.904144 
	C109.245949,318.844910 110.052208,316.757843 110.967972,315.767303 
	C114.924545,311.487549 119.032295,307.334015 123.272812,303.333618 
	C128.898575,298.026428 131.418045,291.592529 129.535202,284.138275 
	C127.427811,275.795044 121.723152,270.779572 113.206306,268.938385 
	C107.768372,267.762787 102.355911,266.418152 97.026093,264.833008 
	C95.827888,264.476624 94.200043,262.826660 94.166672,261.729736 
	C93.922836,253.713364 94.035294,245.686157 94.035294,237.625015 
	C101.313652,235.730469 108.204086,233.686127 115.210701,232.183472 
	C122.247002,230.674423 126.631088,226.205261 128.838348,219.918533 
	C131.382370,212.672638 130.431747,205.689758 124.567192,199.958954 
	C120.038490,195.533524 115.508522,191.099884 111.206558,186.459045 
	C110.207428,185.381195 109.253487,182.991714 109.776413,181.979462 
	C113.083534,175.577713 116.703781,169.326141 120.516747,163.209564 
	C121.097260,162.278336 123.360512,161.696579 124.598381,161.991226 
	C131.280212,163.581680 138.049759,165.048035 144.477234,167.406845 
	C154.887527,171.227325 171.252365,157.780441 167.248734,144.362350 
	C165.055679,137.012405 163.344360,129.518707 161.253799,121.465714 
	C167.072159,117.876625 173.106461,114.006569 179.295074,110.401375 
	C182.234161,108.689201 184.878784,108.990685 187.462173,111.905190 
	C191.722076,116.711075 196.220139,121.379799 201.089676,125.556129 
	C211.512833,134.495483 227.644714,129.869797 231.942307,116.732857 
	C234.023911,110.369774 235.206406,103.715729 237.176407,97.310417 
	C237.594086,95.952393 239.625748,94.234108 240.986237,94.167793 
	C247.636505,93.843674 254.320740,93.837517 260.969604,94.176720 
	C262.333801,94.246307 264.359894,96.046707 264.774902,97.438675 
	C266.456543,103.079163 267.626312,108.872116 268.989288,114.607780 
	C270.928802,122.769768 276.337616,127.654602 284.188629,129.573303 
	C291.046234,131.249237 297.245422,129.321289 302.325958,124.268379 
	C306.933899,119.685486 311.523560,115.084198 316.391571,110.247070 
z"/>
<path fill="#5573B2" opacity="1.000000" stroke="none" 
	d="
M10.419662,385.027924 
	C10.011790,384.280579 9.999566,383.487000 9.984357,382.296021 
	C10.033693,381.571747 10.198237,381.317444 10.902653,380.957458 
	C11.590947,380.611450 11.829510,380.416718 12.045987,380.194916 
	C12.045987,380.194916 12.468291,380.060822 12.892687,379.916260 
	C13.573329,379.598480 13.811252,379.402985 14.030849,379.185150 
	C35.571060,367.782745 58.444481,359.893829 81.727280,352.912415 
	C106.454208,345.498016 131.873962,341.584412 157.203278,337.280060 
	C168.543335,335.352936 180.144958,334.538513 191.659363,334.147919 
	C220.364136,333.174225 249.088974,332.193420 277.801727,332.299561 
	C292.746002,332.354767 307.725525,334.338959 322.609467,336.118103 
	C338.408234,338.006531 354.266571,339.948883 369.819000,343.204712 
	C388.883942,347.195801 407.909119,351.774170 426.482941,357.593903 
	C442.693573,362.673218 458.414368,369.456879 474.036041,376.216705 
	C482.116730,379.713409 489.514648,384.789246 497.214203,389.163635 
	C498.166779,389.704803 499.077454,390.319763 499.610718,391.371552 
	C446.046112,378.625000 392.110565,370.722321 336.700592,366.364410 
	C337.730530,370.512634 338.209534,373.710754 339.343842,376.656555 
	C340.497284,379.651855 339.628693,381.116394 336.970551,382.566345 
	C331.793152,385.390442 326.744720,388.465515 321.757660,391.618256 
	C318.982941,393.372375 317.106049,392.806183 314.941101,390.476746 
	C310.634186,385.842468 306.105347,381.405426 301.529785,377.031677 
	C291.426849,367.374207 274.268036,371.534332 269.941254,384.817078 
	C267.512970,392.271820 265.676788,399.919464 263.446472,407.938141 
	C255.757935,407.938141 247.947800,408.053467 240.149414,407.802948 
	C239.087143,407.768860 237.530899,406.080902 237.147049,404.861603 
	C235.331009,399.093231 233.442780,393.297729 232.316193,387.371948 
	C229.467041,372.385406 210.451736,366.361816 198.691528,377.810516 
	C194.665070,381.730347 190.965927,385.994720 187.232895,390.204285 
	C185.294540,392.390076 183.601181,393.730347 180.500412,391.831787 
	C174.094254,387.909363 167.478561,384.329132 160.896164,380.578064 
	C162.403259,375.258972 163.772537,370.426300 165.326950,364.940216 
	C157.868439,365.329773 150.971680,365.559387 144.098160,366.090057 
	C138.529388,366.519958 132.988586,367.312073 127.435356,367.943176 
	C112.902603,369.594757 98.327118,370.941559 83.847534,372.972198 
	C64.368530,375.704010 44.960079,378.941711 25.530069,382.017365 
	C22.303419,382.528168 19.121239,383.319916 15.298641,384.094360 
	C14.422606,384.356110 14.192614,384.538361 13.988796,384.753662 
	C12.930966,384.829651 11.873137,384.905670 10.419662,385.027924 
z"/>
<path fill="#5573B2" opacity="1.000000" stroke="none" 
	d="
M169.984375,245.988464 
	C171.993713,237.643570 178.521057,239.230133 184.365891,238.960922 
	C187.483490,230.572174 191.384003,222.381851 193.534134,213.755249 
	C196.824966,200.551895 205.703445,194.482040 217.993790,192.109161 
	C223.771957,190.993591 229.709534,190.155380 235.575500,190.151566 
	C249.841339,190.142288 264.138214,190.248932 278.359467,191.226746 
	C284.570709,191.653839 290.759369,193.956177 296.721680,196.073181 
	C304.507965,198.837845 306.175385,206.516968 308.844025,213.108368 
	C311.789673,220.383911 314.421143,227.801407 316.823517,235.274673 
	C317.746887,238.147064 319.011475,239.131638 322.013885,239.100876 
	C329.979553,239.019226 335.164459,244.113129 334.729889,251.808716 
	C334.648132,253.256638 332.422913,255.057083 330.781494,255.803467 
	C329.289642,256.481781 327.246216,255.946991 326.439331,255.946991 
	C326.607605,275.097382 326.731323,293.756042 326.957520,312.413452 
	C327.035736,318.865326 324.163422,322.658783 317.647461,322.049774 
	C311.867371,321.509521 305.996460,321.971375 300.166077,321.929352 
	C294.803162,321.890717 293.112885,320.172668 293.043091,314.786346 
	C293.008636,312.126282 293.037109,309.465393 293.037109,306.370178 
	C265.473297,306.370178 238.098053,306.370178 209.973541,306.370178 
	C209.973541,309.158142 210.024033,312.080658 209.962280,315.000763 
	C209.856339,320.010742 208.018784,321.880371 203.109207,321.917755 
	C196.945709,321.964722 190.761993,321.624573 184.623611,322.019989 
	C179.232880,322.367218 176.304077,319.564056 176.232010,313.960205 
	C175.987213,294.924164 176.409576,275.879547 176.578262,256.710968 
	C174.561066,255.905548 171.084854,255.089417 168.475220,253.123154 
	C167.703766,252.541870 169.377365,248.715546 169.984375,245.988464 
M288.175293,243.005371 
	C293.681488,242.408249 299.187683,241.811127 305.698853,241.105011 
	C301.386383,231.136200 297.055939,222.125443 293.607117,212.789032 
	C291.440857,206.924759 287.259827,204.820663 281.867249,204.088806 
	C277.301636,203.469193 272.674133,203.076920 268.068848,203.022720 
	C255.912659,202.879654 243.749115,202.780075 231.597885,203.064713 
	C226.221176,203.190689 220.820831,204.048431 215.529053,205.077209 
	C213.773315,205.418549 211.566620,206.993301 210.855911,208.581375 
	C206.183838,219.021194 201.864532,229.618912 196.991333,241.208710 
	C205.434616,241.880371 212.600037,242.873581 219.774353,242.942581 
	C242.255920,243.158859 264.740845,243.026764 288.175293,243.005371 
M197.156754,264.059906 
	C186.580902,262.238342 185.693390,262.960175 185.898254,272.418213 
	C185.980453,276.213013 187.232895,276.857819 191.075241,276.352997 
	C197.201462,275.548096 203.546402,274.978668 209.047806,279.492920 
	C212.041748,281.949646 215.634338,280.808044 217.376007,277.867981 
	C219.303024,274.615051 217.258820,271.781433 213.977173,270.435883 
	C208.684174,268.265594 203.272934,266.383636 197.156754,264.059906 
M317.024841,268.736511 
	C316.646515,264.147308 313.906036,261.923218 309.535767,263.249512 
	C304.103546,264.898071 298.872528,267.206055 293.448059,268.884949 
	C288.672577,270.363007 286.280670,273.788696 284.094116,277.952301 
	C288.047119,280.496857 292.007324,281.330139 295.173004,278.821869 
	C299.792603,275.161530 304.860992,275.906281 309.840851,276.154327 
	C317.066650,276.514252 317.053589,276.776428 317.024841,268.736511 
z"/>
<path fill="#566A99" opacity="1.000000" stroke="none" 
	d="
M13.767204,379.166229 
	C13.811252,379.402985 13.573329,379.598480 13.110405,379.875305 
	C13.103672,379.701721 13.303616,379.424500 13.767204,379.166229 
z"/>
<path fill="#566A99" opacity="1.000000" stroke="none" 
	d="
M11.782460,380.174011 
	C11.829510,380.416718 11.590947,380.611450 11.121615,380.878143 
	C11.114931,380.702454 11.316932,380.427795 11.782460,380.174011 
z"/>
<path fill="#566A99" opacity="1.000000" stroke="none" 
	d="
M14.236345,384.774048 
	C14.192614,384.538361 14.422606,384.356110 14.881477,384.120453 
	C14.997602,384.377075 14.797507,384.630554 14.236345,384.774048 
z"/>
<path fill="#000000" opacity="1.000000" stroke="none" 
	d="
M287.699890,243.017487 
	C264.740845,243.026764 242.255920,243.158859 219.774353,242.942581 
	C212.600037,242.873581 205.434616,241.880371 196.991333,241.208710 
	C201.864532,229.618912 206.183838,219.021194 210.855911,208.581375 
	C211.566620,206.993301 213.773315,205.418549 215.529053,205.077209 
	C220.820831,204.048431 226.221176,203.190689 231.597885,203.064713 
	C243.749115,202.780075 255.912659,202.879654 268.068848,203.022720 
	C272.674133,203.076920 277.301636,203.469193 281.867249,204.088806 
	C287.259827,204.820663 291.440857,206.924759 293.607117,212.789032 
	C297.055939,222.125443 301.386383,231.136200 305.698853,241.105011 
	C299.187683,241.811127 293.681488,242.408249 287.699890,243.017487 
z"/>
<path fill="#000000" opacity="1.000000" stroke="none" 
	d="
M197.534210,264.219910 
	C203.272934,266.383636 208.684174,268.265594 213.977173,270.435883 
	C217.258820,271.781433 219.303024,274.615051 217.376007,277.867981 
	C215.634338,280.808044 212.041748,281.949646 209.047806,279.492920 
	C203.546402,274.978668 197.201462,275.548096 191.075241,276.352997 
	C187.232895,276.857819 185.980453,276.213013 185.898254,272.418213 
	C185.693390,262.960175 186.580902,262.238342 197.534210,264.219910 
z"/>
<path fill="#000000" opacity="1.000000" stroke="none" 
	d="
M317.025085,269.180145 
	C317.053589,276.776428 317.066650,276.514252 309.840851,276.154327 
	C304.860992,275.906281 299.792603,275.161530 295.173004,278.821869 
	C292.007324,281.330139 288.047119,280.496857 284.094116,277.952301 
	C286.280670,273.788696 288.672577,270.363007 293.448059,268.884949 
	C298.872528,267.206055 304.103546,264.898071 309.535767,263.249512 
	C313.906036,261.923218 316.646515,264.147308 317.025085,269.180145 
z"/>
</svg>